<mxfile host="app.diagrams.net" modified="2020-08-15T20:17:06.446Z" agent="5.0 (Windows)" etag="Z4ueHwjK9JMyitpj5z0J" version="13.6.2" type="github">
  <diagram id="nmL1NWge_n1fNLjrVpCX" name="Page-1">
    <mxGraphModel dx="868" dy="429" grid="1" gridSize="10" guides="1" tooltips="1" connect="1" arrows="1" fold="1" page="1" pageScale="1" pageWidth="1200" pageHeight="1600" math="0" shadow="0">
      <root>
        <mxCell id="0" />
        <mxCell id="1" parent="0" />
        <mxCell id="gM8_WcNSdChKccLEJgWd-11" style="edgeStyle=orthogonalEdgeStyle;rounded=0;orthogonalLoop=1;jettySize=auto;html=1;" edge="1" parent="1" source="gM8_WcNSdChKccLEJgWd-1" target="gM8_WcNSdChKccLEJgWd-10">
          <mxGeometry relative="1" as="geometry" />
        </mxCell>
        <mxCell id="gM8_WcNSdChKccLEJgWd-1" value="XSLT " style="rounded=0;whiteSpace=wrap;html=1;" vertex="1" parent="1">
          <mxGeometry x="260" y="230" width="290" height="120" as="geometry" />
        </mxCell>
        <mxCell id="gM8_WcNSdChKccLEJgWd-2" value="SourceNode" style="shape=xor;whiteSpace=wrap;html=1;" vertex="1" parent="1">
          <mxGeometry x="220" y="190" width="100" height="80" as="geometry" />
        </mxCell>
        <mxCell id="gM8_WcNSdChKccLEJgWd-4" value="" style="shape=xor;whiteSpace=wrap;html=1;rotation=-180;" vertex="1" parent="1">
          <mxGeometry x="490" y="185" width="100" height="80" as="geometry" />
        </mxCell>
        <mxCell id="gM8_WcNSdChKccLEJgWd-5" value="Target Node" style="text;html=1;strokeColor=none;fillColor=none;align=center;verticalAlign=middle;whiteSpace=wrap;rounded=0;" vertex="1" parent="1">
          <mxGeometry x="520" y="210" width="80" height="30" as="geometry" />
        </mxCell>
        <mxCell id="gM8_WcNSdChKccLEJgWd-7" style="edgeStyle=orthogonalEdgeStyle;rounded=0;orthogonalLoop=1;jettySize=auto;html=1;" edge="1" parent="1" source="gM8_WcNSdChKccLEJgWd-6" target="gM8_WcNSdChKccLEJgWd-2">
          <mxGeometry relative="1" as="geometry" />
        </mxCell>
        <mxCell id="gM8_WcNSdChKccLEJgWd-6" value="" style="triangle;whiteSpace=wrap;html=1;" vertex="1" parent="1">
          <mxGeometry x="50" y="270" width="60" height="80" as="geometry" />
        </mxCell>
        <mxCell id="gM8_WcNSdChKccLEJgWd-9" style="edgeStyle=orthogonalEdgeStyle;rounded=0;orthogonalLoop=1;jettySize=auto;html=1;entryX=0.75;entryY=0;entryDx=0;entryDy=0;" edge="1" parent="1" source="gM8_WcNSdChKccLEJgWd-8" target="gM8_WcNSdChKccLEJgWd-5">
          <mxGeometry relative="1" as="geometry" />
        </mxCell>
        <mxCell id="gM8_WcNSdChKccLEJgWd-8" value="" style="triangle;whiteSpace=wrap;html=1;rotation=-180;" vertex="1" parent="1">
          <mxGeometry x="680" y="265" width="60" height="80" as="geometry" />
        </mxCell>
        <mxCell id="gM8_WcNSdChKccLEJgWd-13" style="edgeStyle=orthogonalEdgeStyle;rounded=0;orthogonalLoop=1;jettySize=auto;html=1;" edge="1" parent="1" source="gM8_WcNSdChKccLEJgWd-10" target="gM8_WcNSdChKccLEJgWd-12">
          <mxGeometry relative="1" as="geometry" />
        </mxCell>
        <mxCell id="gM8_WcNSdChKccLEJgWd-10" value="" style="shape=cylinder2;whiteSpace=wrap;html=1;boundedLbl=1;backgroundOutline=1;size=15;" vertex="1" parent="1">
          <mxGeometry x="350" y="430" width="150" height="70" as="geometry" />
        </mxCell>
        <mxCell id="gM8_WcNSdChKccLEJgWd-12" value="" style="shape=cylinder2;whiteSpace=wrap;html=1;boundedLbl=1;backgroundOutline=1;size=15;" vertex="1" parent="1">
          <mxGeometry x="670" y="380" width="70" height="100" as="geometry" />
        </mxCell>
        <mxCell id="gM8_WcNSdChKccLEJgWd-14" value="Recommendtaion --&amp;gt; Integration which is deloyed from long time " style="text;html=1;strokeColor=none;fillColor=none;align=center;verticalAlign=middle;whiteSpace=wrap;rounded=0;" vertex="1" parent="1">
          <mxGeometry x="370" y="380" width="80" height="10" as="geometry" />
        </mxCell>
        <mxCell id="gM8_WcNSdChKccLEJgWd-16" style="edgeStyle=orthogonalEdgeStyle;rounded=0;orthogonalLoop=1;jettySize=auto;html=1;" edge="1" parent="1" source="gM8_WcNSdChKccLEJgWd-15" target="gM8_WcNSdChKccLEJgWd-10">
          <mxGeometry relative="1" as="geometry" />
        </mxCell>
        <mxCell id="gM8_WcNSdChKccLEJgWd-15" value="XSLT " style="rounded=0;whiteSpace=wrap;html=1;" vertex="1" parent="1">
          <mxGeometry x="30" y="400" width="160" height="50" as="geometry" />
        </mxCell>
        <mxCell id="gM8_WcNSdChKccLEJgWd-18" style="edgeStyle=orthogonalEdgeStyle;rounded=0;orthogonalLoop=1;jettySize=auto;html=1;" edge="1" parent="1" source="gM8_WcNSdChKccLEJgWd-17" target="gM8_WcNSdChKccLEJgWd-10">
          <mxGeometry relative="1" as="geometry" />
        </mxCell>
        <mxCell id="gM8_WcNSdChKccLEJgWd-17" value="XSLT " style="rounded=0;whiteSpace=wrap;html=1;" vertex="1" parent="1">
          <mxGeometry x="30" y="500" width="160" height="50" as="geometry" />
        </mxCell>
        <mxCell id="gM8_WcNSdChKccLEJgWd-19" value="Spark engine " style="ellipse;whiteSpace=wrap;html=1;" vertex="1" parent="1">
          <mxGeometry x="510" y="470" width="100" height="50" as="geometry" />
        </mxCell>
        <mxCell id="gM8_WcNSdChKccLEJgWd-20" value="fetch(source name space , Target Namespace)" style="rounded=0;whiteSpace=wrap;html=1;" vertex="1" parent="1">
          <mxGeometry x="275" y="70" width="260" height="100" as="geometry" />
        </mxCell>
      </root>
    </mxGraphModel>
  </diagram>
</mxfile>
